<?xml version="1.0" encoding="UTF-8" standalone="no"?>
<!DOCTYPE svg PUBLIC "-//W3C//DTD SVG 1.1//EN"
 "http://www.w3.org/Graphics/SVG/1.1/DTD/svg11.dtd">
<!-- Generated by graphviz version 13.1.0 (20250701.0955)
 -->
<!-- Title: mfrc522 driver function Pages: 1 -->
<svg width="279pt" height="340pt"
 viewBox="0.00 0.00 279.00 340.00" xmlns="http://www.w3.org/2000/svg" xmlns:xlink="http://www.w3.org/1999/xlink">
<g id="graph0" class="graph" transform="scale(1 1) rotate(0) translate(4 336)">
<title>mfrc522 driver function</title>
<!-- Node3 -->
<g id="Node000003" class="node">
<title>Node3</title>
<g id="a_Node000003"><a xlink:href="group__mfrc522__basic__driver.html" target="_top" xlink:title="mfrc522 basic driver modules">
<polygon fill="white" stroke="#666666" points="263.38,-332 158.88,-332 158.88,-300 263.38,-300 263.38,-332"/>
<text xml:space="preserve" text-anchor="start" x="166.88" y="-318.5" font-family="Helvetica,sans-Serif" font-size="10.00">mfrc522 basic driver</text>
<text xml:space="preserve" text-anchor="middle" x="211.12" y="-306.5" font-family="Helvetica,sans-Serif" font-size="10.00"> function</text>
</a>
</g>
</g>
<!-- Node4 -->
<g id="Node000004" class="node">
<title>Node4</title>
<g id="a_Node000004"><a xlink:href="group__mfrc522__chip__test__driver.html" target="_top" xlink:title="mfrc522 chip test driver modules">
<polygon fill="white" stroke="#666666" points="270.5,-282 151.75,-282 151.75,-250 270.5,-250 270.5,-282"/>
<text xml:space="preserve" text-anchor="start" x="159.75" y="-268.5" font-family="Helvetica,sans-Serif" font-size="10.00">mfrc522 chip test driver</text>
<text xml:space="preserve" text-anchor="middle" x="211.12" y="-256.5" font-family="Helvetica,sans-Serif" font-size="10.00"> function</text>
</a>
</g>
</g>
<!-- Node1 -->
<g id="Node000001" class="node">
<title>Node1</title>
<g id="a_Node000001"><a xlink:title="mfrc522 driver modules">
<polygon fill="#999999" stroke="#666666" points="115.75,-176 0,-176 0,-156 115.75,-156 115.75,-176"/>
<text xml:space="preserve" text-anchor="middle" x="57.88" y="-162.5" font-family="Helvetica,sans-Serif" font-size="10.00">mfrc522 driver function</text>
</a>
</g>
</g>
<!-- Node1&#45;&gt;Node3 -->
<g id="edge2" class="edge">
<title>Node1&#45;&gt;Node3</title>
<path fill="none" stroke="black" d="M69.31,-186.05C84.28,-213.13 114.26,-261.41 151.75,-291 155.82,-294.21 160.36,-297.08 165.06,-299.64"/>
<polygon fill="black" stroke="black" points="72.53,-184.65 64.7,-177.5 66.36,-187.97 72.53,-184.65"/>
</g>
<!-- Node1&#45;&gt;Node4 -->
<g id="edge3" class="edge">
<title>Node1&#45;&gt;Node4</title>
<path fill="none" stroke="black" d="M77.99,-184.08C95.99,-200.44 124.23,-224.43 151.75,-241 156.85,-244.07 162.4,-246.96 167.97,-249.6"/>
<polygon fill="black" stroke="black" points="80.4,-181.54 70.68,-177.33 75.65,-186.68 80.4,-181.54"/>
</g>
<!-- Node7 -->
<g id="Node000007" class="node">
<title>Node7</title>
<g id="a_Node000007"><a xlink:href="group__mfrc522__example__driver.html" target="_top" xlink:title="mfrc522 example driver modules">
<polygon fill="white" stroke="#666666" points="270.12,-232 152.12,-232 152.12,-200 270.12,-200 270.12,-232"/>
<text xml:space="preserve" text-anchor="start" x="160.12" y="-218.5" font-family="Helvetica,sans-Serif" font-size="10.00">mfrc522 example driver</text>
<text xml:space="preserve" text-anchor="middle" x="211.12" y="-206.5" font-family="Helvetica,sans-Serif" font-size="10.00"> function</text>
</a>
</g>
</g>
<!-- Node1&#45;&gt;Node7 -->
<g id="edge6" class="edge">
<title>Node1&#45;&gt;Node7</title>
<path fill="none" stroke="black" d="M101.5,-180.09C119.79,-186.14 141.28,-193.24 160.3,-199.53"/>
<polygon fill="black" stroke="black" points="102.61,-176.77 92.02,-176.96 100.42,-183.42 102.61,-176.77"/>
</g>
<!-- Node5 -->
<g id="Node000005" class="node">
<title>Node5</title>
<g id="a_Node000005"><a xlink:href="group__mfrc522__extern__driver.html" target="_top" xlink:title="mfrc522 extern driver modules">
<polygon fill="white" stroke="#666666" points="265.25,-182 157,-182 157,-150 265.25,-150 265.25,-182"/>
<text xml:space="preserve" text-anchor="start" x="165" y="-168.5" font-family="Helvetica,sans-Serif" font-size="10.00">mfrc522 extern driver</text>
<text xml:space="preserve" text-anchor="middle" x="211.12" y="-156.5" font-family="Helvetica,sans-Serif" font-size="10.00"> function</text>
</a>
</g>
</g>
<!-- Node1&#45;&gt;Node5 -->
<g id="edge4" class="edge">
<title>Node1&#45;&gt;Node5</title>
<path fill="none" stroke="black" d="M127.5,-166C137.35,-166 147.36,-166 156.85,-166"/>
<polygon fill="black" stroke="black" points="127.57,-162.5 117.57,-166 127.57,-169.5 127.57,-162.5"/>
</g>
<!-- Node6 -->
<g id="Node000006" class="node">
<title>Node6</title>
<g id="a_Node000006"><a xlink:href="group__mfrc522__interface__driver.html" target="_top" xlink:title="mfrc522 interface driver modules">
<polygon fill="white" stroke="#666666" points="270.5,-132 151.75,-132 151.75,-100 270.5,-100 270.5,-132"/>
<text xml:space="preserve" text-anchor="start" x="159.75" y="-118.5" font-family="Helvetica,sans-Serif" font-size="10.00">mfrc522 interface driver</text>
<text xml:space="preserve" text-anchor="middle" x="211.12" y="-106.5" font-family="Helvetica,sans-Serif" font-size="10.00"> function</text>
</a>
</g>
</g>
<!-- Node1&#45;&gt;Node6 -->
<g id="edge5" class="edge">
<title>Node1&#45;&gt;Node6</title>
<path fill="none" stroke="black" d="M101.5,-151.91C119.79,-145.86 141.28,-138.76 160.3,-132.47"/>
<polygon fill="black" stroke="black" points="100.42,-148.58 92.02,-155.04 102.61,-155.23 100.42,-148.58"/>
</g>
<!-- Node2 -->
<g id="Node000002" class="node">
<title>Node2</title>
<g id="a_Node000002"><a xlink:href="group__mfrc522__link__driver.html" target="_top" xlink:title="mfrc522 link driver modules">
<polygon fill="white" stroke="#666666" points="259.25,-82 163,-82 163,-50 259.25,-50 259.25,-82"/>
<text xml:space="preserve" text-anchor="start" x="171" y="-68.5" font-family="Helvetica,sans-Serif" font-size="10.00">mfrc522 link driver</text>
<text xml:space="preserve" text-anchor="middle" x="211.12" y="-56.5" font-family="Helvetica,sans-Serif" font-size="10.00"> function</text>
</a>
</g>
</g>
<!-- Node1&#45;&gt;Node2 -->
<g id="edge1" class="edge">
<title>Node1&#45;&gt;Node2</title>
<path fill="none" stroke="black" d="M77.99,-147.92C95.99,-131.56 124.23,-107.57 151.75,-91 156.85,-87.93 162.4,-85.04 167.97,-82.4"/>
<polygon fill="black" stroke="black" points="75.65,-145.32 70.68,-154.67 80.4,-150.46 75.65,-145.32"/>
</g>
<!-- Node8 -->
<g id="Node000008" class="node">
<title>Node8</title>
<g id="a_Node000008"><a xlink:href="group__mfrc522__test__driver.html" target="_top" xlink:title="mfrc522 test driver modules">
<polygon fill="white" stroke="#666666" points="260,-32 162.25,-32 162.25,0 260,0 260,-32"/>
<text xml:space="preserve" text-anchor="start" x="170.25" y="-18.5" font-family="Helvetica,sans-Serif" font-size="10.00">mfrc522 test driver</text>
<text xml:space="preserve" text-anchor="middle" x="211.12" y="-6.5" font-family="Helvetica,sans-Serif" font-size="10.00"> function</text>
</a>
</g>
</g>
<!-- Node1&#45;&gt;Node8 -->
<g id="edge7" class="edge">
<title>Node1&#45;&gt;Node8</title>
<path fill="none" stroke="black" d="M69.31,-145.95C84.28,-118.87 114.26,-70.59 151.75,-41 155.82,-37.79 160.36,-34.92 165.06,-32.36"/>
<polygon fill="black" stroke="black" points="66.36,-144.03 64.7,-154.5 72.53,-147.35 66.36,-144.03"/>
</g>
</g>
</svg>
